<svg width="90" height="90" viewBox="0 0 90 90" fill="none" xmlns="http://www.w3.org/2000/svg">
<path d="M41.4316 0.984375C36.123 2.12695 31.6055 5.66016 29.25 10.4766C27.7207 13.5879 27.1406 17.3145 27.668 20.6895C28.2832 24.7148 29.8301 27.7383 32.7832 30.6914L34.3828 32.291L33.3281 32.502C30.0234 33.1875 24.9258 35.2793 22.1133 37.1426C16.9277 40.5352 13.7637 45.2109 13.0254 50.5195C12.9023 51.3281 12.832 55.0371 12.832 59.6777V67.4824L13.2891 67.834C13.7285 68.1855 13.9746 68.2031 18.2109 68.2031H22.6758V68.6953C22.6758 69.6973 23.2559 72.5449 23.7656 74.0918C26.3496 81.8086 33.082 87.6445 41.0273 89.0332C43.0488 89.3848 46.9512 89.3848 48.9727 89.0332C56.918 87.6445 63.6504 81.8086 66.2344 74.0918C66.7441 72.5449 67.3242 69.6973 67.3242 68.6953V68.2031H71.7891C76.0254 68.2031 76.2715 68.1855 76.7109 67.834L77.168 67.4824V59.6777C77.168 55.0371 77.0977 51.3281 76.9746 50.5195C75.8145 42.0996 68.6426 35.5781 57.4453 32.7129L55.5645 32.2207L56.6191 31.3066C62.4551 26.1562 64.1777 17.5078 60.75 10.4766C58.377 5.58984 53.666 1.96875 48.375 0.949219C46.7227 0.632812 42.9961 0.650391 41.4316 0.984375ZM48.4805 3.35742C53.6836 4.55273 57.9551 8.57812 59.5723 13.7637C61.1367 18.8613 59.8535 24.416 56.1973 28.3887C50.0625 35.0684 39.9375 35.0684 33.8027 28.3887C30.832 25.1719 29.3379 20.6719 29.8652 16.5586C31.043 7.29492 39.5156 1.2832 48.4805 3.35742ZM38.9883 34.6289C42.8379 36.0352 47.0391 36.0176 51.082 34.6113L52.6992 34.0312L54.7031 34.4355C58.8164 35.2617 63.6328 37.1602 66.6211 39.1289C70.5938 41.7305 73.248 45.1758 74.373 49.1309C74.7598 50.4844 74.7773 50.8711 74.8477 58.2188L74.9004 65.918H71.1211H67.3242V65.3203C67.3242 64.3535 66.832 61.8398 66.3398 60.2578C63.8262 52.2422 56.918 46.248 48.6387 44.9121C37.125 43.0488 26.1563 50.2383 23.3086 61.5059C23.0625 62.4727 22.8164 63.8613 22.7461 64.5996L22.623 65.918H18.8613H15.0996L15.1523 58.2188C15.2227 50.8711 15.2402 50.4844 15.627 49.1309C17.3672 42.9785 22.7813 38.2148 31.0254 35.5781C33.4512 34.8047 36.2285 34.1367 37.1074 34.1191C37.3535 34.1016 38.1973 34.3301 38.9883 34.6289ZM50.0098 47.5312C57.0059 49.4121 62.5605 54.9668 64.459 61.998C64.8984 63.5625 64.9336 64.002 64.9336 66.9727C64.9336 69.9434 64.8984 70.3652 64.459 71.9648C62.4023 79.5586 56.2676 85.2891 48.6211 86.748C46.7754 87.0996 43.2246 87.0996 41.3965 86.748C33.2402 85.1836 26.9824 78.9785 25.3125 70.8398C24.7852 68.2734 24.8906 64.5293 25.541 61.998C27.5449 54.4219 33.75 48.6914 41.5723 47.1797C42.3809 47.0215 43.7168 46.9688 45.5273 47.0039C47.7949 47.0566 48.5508 47.1445 50.0098 47.5312Z" fill="#CAD62B"/>
<path d="M45.0176 51.082C44.4551 51.3633 43.9277 51.8027 43.6816 52.1894C43.4531 52.541 42.8555 54.2285 42.3809 55.9687C41.8887 57.6914 41.3789 59.291 41.2207 59.5195L40.957 59.9414H37.1953C33.6621 59.9414 33.416 59.959 32.9766 60.3105L32.5195 60.6621V69.6797V78.6972L32.9238 79.0664L33.3281 79.4531H43.998C55.5293 79.4531 55.3711 79.4707 56.4082 78.5215C56.9707 77.9941 57.4805 76.8691 57.4805 76.1133C57.4805 75.7793 57.3223 75.164 57.1289 74.7422C56.8125 74.0566 56.8125 73.916 57.0234 73.4941C57.6035 72.4043 57.498 70.4883 56.8477 69.9433C56.6543 69.7851 56.6895 69.6621 57.0059 69.2226C57.498 68.5547 57.5332 66.832 57.0762 65.9707C56.7949 65.4433 56.7949 65.373 57.1289 64.6523C57.3223 64.2304 57.4805 63.6152 57.4805 63.2812C57.4805 61.9101 56.3906 60.4863 55.0547 60.1172C54.7031 60.0293 53.332 59.9414 52.0137 59.9414C50.6953 59.9414 49.5879 59.9062 49.5352 59.8535C49.4824 59.8008 49.7109 58.7109 50.0273 57.4277C50.3438 56.1445 50.625 54.7558 50.625 54.3164C50.625 51.539 47.6016 49.7988 45.0176 51.082ZM47.918 53.4551C48.1465 53.6836 48.3398 54.0351 48.3398 54.2812C48.3398 54.5097 48.0586 55.8105 47.707 57.1465C47.0391 59.7656 47.0391 60.3281 47.6719 61.2246C48.3047 62.1035 48.7793 62.2265 51.6621 62.2265C54.1934 62.2265 54.3164 62.2441 54.791 62.6484L55.2832 63.0703L54.9668 63.7031L54.668 64.3359H53.3672C51.9082 64.3359 51.5039 64.5644 51.5039 65.373C51.5039 66.2695 51.8555 66.498 53.3672 66.6035C54.6328 66.709 54.7734 66.7441 55.002 67.166C55.2305 67.5879 55.2305 67.6758 54.9668 68.0976C54.6855 68.5195 54.5625 68.5547 53.4727 68.5547C52.0312 68.5547 51.5039 68.8535 51.5039 69.6445C51.5039 70.5761 51.9082 70.8398 53.3672 70.8398C54.5625 70.8398 54.6855 70.875 54.9668 71.2969C55.2305 71.7187 55.2305 71.8066 55.002 72.2285C54.7734 72.6504 54.6328 72.6855 53.3672 72.791C51.8555 72.8965 51.5039 73.125 51.5039 74.0215C51.5039 74.8301 51.9082 75.0586 53.332 75.0586C54.6152 75.0586 54.6152 75.0586 54.9492 75.6738C55.2656 76.2715 55.2656 76.2715 54.8438 76.7285L54.4395 77.1679H47.1621H39.9023V69.6972V62.2265H40.5879C42.0293 62.2265 43.0312 61.4883 43.5762 60.0469C43.752 59.5547 44.2441 57.9199 44.6484 56.4258C45.5273 53.2793 45.8438 52.8047 46.8809 52.9629C47.2324 53.0332 47.6895 53.2441 47.918 53.4551ZM37.6172 69.6972V77.1679H36.2109H34.8047V69.6972V62.2265H36.2109H37.6172V69.6972Z" fill="#CAD62B"/>
<path d="M10.2832 17.3848C9.65039 17.6484 9.29883 18.2109 8.45508 20.4082L7.61133 22.5879L5.25586 22.7285C3.95508 22.8164 2.70703 22.9746 2.47852 23.0801C1.79297 23.4141 1.37109 24.1348 1.37109 24.9434C1.38867 25.875 1.65234 26.2266 3.60352 27.7734C4.48242 28.4766 5.23828 29.1094 5.30859 29.1621C5.37891 29.2324 5.16797 30.3398 4.81641 31.6406C4.25391 33.7324 4.20117 34.084 4.39453 34.6816C4.62305 35.4902 5.43164 36.0352 6.3457 36.0352C6.82031 36.0352 7.45312 35.7363 9.03516 34.7168L11.1094 33.3809L13.043 34.6465C15.1875 36.0176 15.9434 36.2461 16.8398 35.7891C17.4375 35.4727 17.9297 34.6992 17.9297 34.0664C17.9297 33.8379 17.666 32.6777 17.3496 31.4648L16.7695 29.2852L18.6328 27.7559C20.9355 25.8574 21.2344 25.3301 20.6719 23.9941C20.2852 23.0977 19.7227 22.9043 17.0156 22.7637L14.6074 22.623L13.957 20.9355C12.8672 18.0879 12.7266 17.7891 12.1465 17.5078C11.584 17.209 10.8457 17.1562 10.2832 17.3848ZM11.9531 22.1836C12.3574 23.2734 12.832 24.3281 13.0078 24.5039C13.2891 24.7852 13.7109 24.8555 15.6797 24.9785C16.9629 25.0488 18.0527 25.1191 18.0703 25.1191C18.1055 25.1367 17.3145 25.8047 16.2949 26.6309C15.2754 27.457 14.4141 28.2832 14.3613 28.4766C14.3086 28.6875 14.5371 29.8477 14.8535 31.0781C15.1875 32.3086 15.4336 33.3281 15.416 33.3457C15.3809 33.3633 14.5371 32.8359 13.5352 32.168C12.2344 31.3066 11.5137 30.9551 11.127 30.9375C10.7227 30.9375 10.0547 31.2539 8.8418 32.0449C7.89258 32.6602 7.03125 33.2051 6.92578 33.2754C6.82031 33.3281 6.99609 32.4141 7.3125 31.2363C7.64648 30.0586 7.91016 28.9336 7.91016 28.7227C7.91016 28.3184 7.36523 27.7734 5.4668 26.2617C4.25391 25.3125 4.20117 25.2246 4.58789 25.1191C4.81641 25.0488 5.67773 24.9961 6.50391 24.9785C7.33008 24.9609 8.2793 24.873 8.63086 24.7852C9.33398 24.5918 9.43945 24.416 10.4766 21.5859C10.7578 20.8301 11.0391 20.2148 11.0918 20.2148C11.1445 20.2148 11.5312 21.1113 11.9531 22.1836Z" fill="#CAD62B"/>
<path d="M77.7656 17.5605C77.3789 17.7891 77.0977 18.1934 76.8516 18.8438C76.6582 19.3535 76.2539 20.4258 75.9375 21.1992L75.3926 22.623L72.9844 22.7637C70.2773 22.9043 69.7148 23.0977 69.3281 23.9941C68.7656 25.3301 69.0644 25.8574 71.3672 27.7559L73.2305 29.2852L72.6504 31.4648C72.334 32.6777 72.0703 33.8379 72.0703 34.0664C72.0703 34.6992 72.5449 35.4727 73.125 35.7715C74.1094 36.2813 74.6367 36.123 76.834 34.7168L78.9082 33.3809L80.9648 34.7168C83.1621 36.123 83.7422 36.2813 84.709 35.7715C84.9902 35.6309 85.3418 35.2266 85.5176 34.8574C85.834 34.1895 85.834 34.1719 85.2715 31.9922C84.9551 30.7793 84.6914 29.6543 84.6738 29.4961C84.6562 29.3379 85.3594 28.6348 86.3613 27.8086C87.3105 27.0352 88.207 26.2441 88.3477 26.0332C88.7344 25.4883 88.6992 24.3105 88.2949 23.748C87.75 23.0273 87.2754 22.8867 84.7441 22.7285L82.3887 22.5879L81.5449 20.3906C81.0703 19.1953 80.5078 18.0176 80.2617 17.7891C79.6816 17.1914 78.5039 17.0859 77.7656 17.5605ZM79.5234 21.5859C80.5605 24.416 80.666 24.5918 81.3691 24.7852C81.7207 24.873 82.6699 24.9609 83.4961 24.9785C84.3223 24.9961 85.1836 25.0488 85.4121 25.1191C85.7988 25.2246 85.7461 25.3125 84.5332 26.2617C82.6348 27.7734 82.0898 28.3184 82.0898 28.7227C82.0898 28.9336 82.3535 30.0586 82.6875 31.2363C83.0039 32.4141 83.1797 33.3281 83.0742 33.2754C82.9687 33.2051 82.1074 32.6602 81.1582 32.0449C79.9453 31.2539 79.2773 30.9375 78.873 30.9375C78.4863 30.9551 77.7656 31.3066 76.4648 32.168C75.4629 32.8359 74.6191 33.3633 74.584 33.3457C74.5664 33.3281 74.8125 32.3086 75.1465 31.0781C75.4629 29.8477 75.6914 28.6875 75.6387 28.4766C75.5859 28.2832 74.7246 27.457 73.7051 26.6309C72.6855 25.8047 71.8945 25.1367 71.9297 25.1191C71.9473 25.1191 73.0371 25.0488 74.3203 24.9785C76.2891 24.8555 76.7109 24.7852 76.9922 24.5039C77.168 24.3281 77.6426 23.2734 78.0469 22.1836C78.4687 21.1113 78.8555 20.2148 78.9082 20.2148C78.9609 20.2148 79.2422 20.8301 79.5234 21.5859Z" fill="#CAD62B"/>
<path d="M10.4414 70.6816C9.65039 70.9102 9.42188 71.2441 8.52539 73.5645C8.06836 74.7246 7.64649 75.7266 7.57617 75.8145C7.50586 75.8848 6.36328 76.0078 5.02734 76.0957C2.30273 76.2539 1.82813 76.4473 1.45898 77.5723C1.08984 78.6621 1.40625 79.3125 2.95313 80.5605C3.69141 81.1582 4.55273 81.8789 4.86914 82.1777L5.43164 82.7051L4.81641 84.9902C4.27148 86.9766 4.21875 87.3457 4.37695 87.9258C4.6582 88.8223 5.30859 89.2969 6.29297 89.2969C6.97852 89.2969 7.34766 89.1211 9 88.0664C10.0547 87.3809 11.0039 86.8359 11.1094 86.8359C11.2148 86.8359 12.1641 87.3809 13.2012 88.0664C14.8535 89.1387 15.1875 89.2969 15.9082 89.2969C16.6113 89.2969 16.8223 89.209 17.332 88.6992C18.0879 87.9434 18.0879 87.5391 17.4023 84.9902C17.1211 83.918 16.875 82.9336 16.875 82.7754C16.875 82.6172 17.5605 81.9316 18.4219 81.2637C20.6719 79.4355 20.8301 79.2246 20.8301 78.2227C20.8301 76.7285 19.8984 76.1133 17.543 76.0957C16.7344 76.0957 15.7324 76.0254 15.3281 75.9727L14.5547 75.8496L13.7461 73.7227C13.2891 72.5449 12.8145 71.4551 12.6738 71.2969C12.1641 70.6992 11.2676 70.4531 10.4414 70.6816ZM13.0078 77.9414C13.1133 78.0469 14.3086 78.2051 15.6621 78.3105L18.1406 78.4863L16.3652 79.8926C15.3984 80.666 14.5371 81.4922 14.4316 81.7383C14.2734 82.0898 14.3613 82.6172 14.8359 84.4277C15.1699 85.6582 15.416 86.6602 15.3809 86.6602C15.3457 86.6602 14.4668 86.0977 13.4297 85.4297C12.3223 84.709 11.3379 84.1992 11.0918 84.1992C10.8281 84.1992 9.84375 84.7266 8.78906 85.4121C7.76953 86.0801 6.92578 86.5723 6.89063 86.4844C6.85547 86.3965 7.08399 85.4121 7.38281 84.2695C7.68164 83.1445 7.89258 82.0547 7.83984 81.8262C7.78711 81.6152 6.92578 80.7891 5.90625 79.9629L4.06055 78.4863L6.50391 78.3105C8.26172 78.1875 9.01758 78.0645 9.21094 77.8711C9.35156 77.7305 9.79102 76.7461 10.1953 75.6738C10.5996 74.6191 10.9688 73.6699 11.0215 73.582C11.0918 73.4941 11.5137 74.3906 11.9707 75.5859C12.4453 76.7812 12.9023 77.8359 13.0078 77.9414Z" fill="#CAD62B"/>
<path d="M78.293 70.6816C77.4668 70.9102 77.1504 71.3848 76.2539 73.7051L75.4453 75.8496L74.6719 75.9727C74.2676 76.0254 73.2656 76.0957 72.457 76.0957C70.1016 76.1133 69.1699 76.7285 69.1699 78.2227C69.1699 79.2246 69.3281 79.4355 71.5957 81.2637C72.4395 81.9316 73.125 82.6172 73.125 82.7754C73.125 82.9336 72.8965 83.918 72.5977 84.9902C71.9121 87.5566 71.9121 87.9434 72.668 88.6992C73.1777 89.209 73.3887 89.2969 74.0918 89.2969C74.8125 89.2969 75.1465 89.1387 76.7988 88.0664C77.8359 87.3809 78.7852 86.8359 78.8906 86.8359C78.9961 86.8359 79.9453 87.3809 81 88.0664C82.6523 89.1211 83.0215 89.2969 83.707 89.2969C84.6738 89.2969 85.3242 88.8398 85.6055 87.9785C85.7812 87.4512 85.7285 87.0645 85.2363 85.2187C84.9375 84.0234 84.6738 82.9512 84.6562 82.8105C84.6562 82.6699 85.4648 81.8789 86.4844 81.0352C88.5762 79.3125 88.9277 78.7324 88.541 77.5723C88.1719 76.4473 87.7148 76.2539 84.9727 76.0957C83.6367 76.0078 82.4941 75.8848 82.4238 75.8145C82.3535 75.7266 81.9141 74.6895 81.4395 73.4941C80.5781 71.2617 80.2266 70.8047 79.2773 70.6113C79.0312 70.5586 78.5918 70.5937 78.293 70.6816ZM79.8047 75.6738C80.209 76.7285 80.6484 77.7305 80.7891 77.8711C80.9824 78.0645 81.7383 78.1875 83.4961 78.3105L85.9395 78.4863L84.0938 79.9629C83.0742 80.7891 82.2129 81.6152 82.1602 81.8262C82.1074 82.0547 82.3184 83.1445 82.6172 84.2695C82.916 85.4121 83.1445 86.3965 83.1094 86.4844C83.0742 86.5723 82.2305 86.0801 81.2109 85.4121C80.1738 84.7441 79.1719 84.1992 78.9258 84.1992C78.6797 84.1992 77.6602 84.7441 76.5879 85.4297C75.5332 86.1152 74.6543 86.6602 74.6191 86.6602C74.584 86.6602 74.8301 85.6582 75.1641 84.4102C75.6387 82.6172 75.7266 82.0898 75.5684 81.7383C75.4629 81.4922 74.6016 80.666 73.6348 79.8926L71.8594 78.4863L74.3555 78.3105C76.3945 78.1699 76.8867 78.082 77.0625 77.8184C77.2031 77.6602 77.6426 76.6055 78.0645 75.498C78.4863 74.3906 78.8906 73.5469 78.9434 73.6172C79.0137 73.6875 79.4004 74.6016 79.8047 75.6738Z" fill="#CAD62B"/>
</svg>
