<svg width="90" height="90" viewBox="0 0 90 90" fill="none" xmlns="http://www.w3.org/2000/svg">
<path d="M22.2891 5.95899C20.9707 6.38086 19.7578 7.17188 18.668 8.33203C15.5918 11.584 15.5918 16.8047 18.6504 20.0918C19.125 20.584 19.4941 20.9883 19.459 21.0059C19.4414 21.0234 18.1934 21.4453 16.6992 21.9551C15.2051 22.4648 13.6055 23.1152 13.1484 23.3965C11.3203 24.5742 10.1074 26.5781 9.80859 28.9688C9.58008 30.7793 9.70313 33.5215 10.0723 34.1895C10.4238 34.875 11.2148 35.6133 11.8301 35.8418C12.1465 35.9648 14.9766 36.0352 19.8809 36.0352H27.4395L27.8613 35.5957C28.1602 35.3145 28.3008 34.9805 28.3008 34.541C28.3008 34.1016 28.1602 33.7676 27.8613 33.4863L27.4395 33.0469H20.1445H12.832L12.7266 32.5898C12.5156 31.7285 12.7793 28.7402 13.1309 27.9316C13.7988 26.4199 14.6777 25.8574 18.1934 24.6621C22.9043 23.0273 23.9238 22.7813 25.4004 22.9043C26.0859 22.9746 27.3516 23.2207 28.2129 23.4844C29.0918 23.748 30.0762 24.0293 30.4277 24.1348C31.2891 24.3809 31.9395 24.1699 32.2559 23.5371C32.7832 22.5352 32.168 21.4453 30.9199 21.1816L30.4102 21.0586L31.2715 20.1094C32.8535 18.3164 33.5742 16.4531 33.5742 14.1504C33.5742 10.3535 31.1836 7.06641 27.6152 5.97657C26.1563 5.51953 23.6953 5.51953 22.2891 5.95899ZM27.5801 9.22852C28.6523 9.8086 29.5137 10.7402 30.0762 11.9355C30.6387 13.0781 30.6563 15.2227 30.1113 16.3828C29.584 17.543 28.4238 18.7207 27.2637 19.2832C25.8574 19.9688 24.0645 19.9688 22.6582 19.2832C21.498 18.7207 20.3379 17.543 19.8105 16.3828C19.2305 15.1348 19.2832 13.0605 19.8984 11.8477C21.1113 9.50977 22.7109 8.56055 25.2246 8.66602C26.3848 8.71875 26.8066 8.80664 27.5801 9.22852Z" fill="#CAD62B"/>
<path d="M62.1914 6.0293C58.6055 7.25977 56.4258 10.3711 56.4258 14.2559C56.4258 16.541 57.2871 18.6328 58.9219 20.3379L59.6426 21.0586L58.9043 21.2871C57.9727 21.5684 57.6211 21.9727 57.6211 22.7637C57.6211 23.5898 58.2188 24.2578 58.9395 24.2578C59.2383 24.2578 60.4688 23.9238 61.6816 23.5371C64.916 22.4824 65.7422 22.5703 71.8066 24.6445C74.4609 25.5586 75.0938 25.8574 75.709 26.4199C76.9395 27.5625 77.168 28.2305 77.168 30.8145V33.0469H69.8906H62.5957L62.1387 33.4512C61.7695 33.75 61.6641 34.0137 61.6641 34.541C61.6641 35.0684 61.7695 35.332 62.1387 35.6309L62.5957 36.0352H70.1543C76.0957 36.0352 77.8359 35.9824 78.2754 35.7891C78.9434 35.5254 79.9277 34.4531 80.0859 33.8555C80.1387 33.6094 80.1562 32.1328 80.1211 30.5508C80.0684 27.7559 80.0508 27.668 79.5059 26.5078C78.8203 25.0488 77.5723 23.7656 76.1836 23.0625C75.6035 22.7812 74.0742 22.2012 72.7559 21.7969L70.3652 21.0586L71.2266 20.1797C72.1934 19.1777 73.002 17.7012 73.3887 16.2246C74.4961 11.9707 71.9824 7.41797 67.7285 5.99414C66.1641 5.4668 63.791 5.48438 62.1914 6.0293ZM67.3594 9.10547C70.8223 10.8105 71.6309 15.1699 69.0293 18.0527C67.4824 19.7578 64.7754 20.2852 62.7363 19.2832C58.166 17.0508 58.4648 10.6172 63.2285 8.85938C64.248 8.49023 66.3398 8.61328 67.3594 9.10547Z" fill="#CAD62B"/>
<path d="M42.873 9.56202C41.0449 10.0718 39.4102 11.2495 38.4082 12.7612C37.3887 14.3081 37.0547 15.5737 37.125 17.6655C37.1777 19.1948 37.2656 19.5816 37.7402 20.6011C38.0391 21.2515 38.6191 22.1304 39.041 22.5874C39.4453 23.0269 39.7441 23.4136 39.709 23.4487C39.6738 23.4839 38.7246 23.8003 37.6172 24.1694C36.5098 24.5386 35.1387 25.0659 34.5762 25.3648C32.6426 26.3667 31.4121 28.23 31.0781 30.6382C30.8496 32.3257 30.9727 34.9097 31.3418 35.6128C31.7285 36.3687 32.5898 37.0542 33.2754 37.1773C33.5918 37.23 39.0586 37.2651 45.457 37.23L57.0762 37.1773L57.709 36.6851C58.834 35.8237 58.9219 35.4898 58.8516 32.273C58.7988 29.6538 58.7637 29.3726 58.3418 28.4761C57.3223 26.3316 55.9512 25.3296 52.3828 24.1694C51.2754 23.8003 50.3262 23.4839 50.291 23.4487C50.2559 23.4136 50.5547 23.0269 50.959 22.5874C51.3809 22.1304 51.9609 21.2515 52.2598 20.6011C52.7871 19.4761 52.8223 19.3179 52.8223 17.314C52.8223 15.3101 52.7871 15.1519 52.2598 14.0269C51.5215 12.4624 50.7656 11.5483 49.5176 10.7046C47.6016 9.43897 44.9824 8.98194 42.873 9.56202ZM47.0391 12.7964C48.1289 13.3589 48.7441 13.939 49.2891 14.9409C51.0645 18.1929 48.6738 22.2358 45 22.2358C42.4336 22.2358 40.3242 20.2671 40.1133 17.648C39.9375 15.3804 41.2734 13.3941 43.541 12.5503C44.4375 12.2163 46.1426 12.3394 47.0391 12.7964ZM50.0801 26.5776C53.209 27.6148 53.9648 27.9312 54.5449 28.4409C55.6875 29.478 55.8984 30.1108 55.8984 32.3433V34.2769L44.9648 34.2417L34.0137 34.189L34.0313 32.3433C34.0488 30.8491 34.1191 30.3569 34.418 29.7944C35.1387 28.4058 35.7363 28.0191 39.041 26.8765C44.7715 24.8901 45 24.8901 50.0801 26.5776Z" fill="#CAD62B"/>
<path d="M76.0781 37.6704C74.6719 38.1978 73.6875 39.0591 68.291 44.4556C65.1973 47.5669 62.6133 50.0981 62.543 50.0981C62.4551 50.0981 62.4023 49.9575 62.4023 49.7642C62.4023 48.9731 61.1016 46.8286 59.8711 45.6157C58.4121 44.1743 57.3223 43.5415 55.4414 43.0669C54.1758 42.7329 53.4727 42.7153 44.6309 42.7153C34.4355 42.7153 33.8027 42.7681 31.3945 43.6646C29.0391 44.561 28.2832 45.1587 22.9043 50.5024L17.7715 55.6001L16.875 54.7739C16.3828 54.3169 15.7148 53.8247 15.3809 53.6841C14.5898 53.3677 12.8145 53.3677 11.9883 53.7017C11.127 54.0708 6.39844 58.7466 5.95898 59.6782C5.55469 60.5571 5.51953 62.3325 5.88867 63.2466C6.27539 64.1431 25.6465 83.5669 26.6309 84.0415C27.5801 84.481 29.373 84.481 30.3223 84.0415C30.7441 83.8481 32.0098 82.7056 33.5039 81.1938C36.3691 78.2759 36.668 77.7485 36.5273 75.8501C36.4219 74.6372 35.8242 73.3716 35.1211 72.8794C34.7871 72.6509 34.7871 72.5806 34.998 72.3169C35.3496 71.895 36.8613 70.9634 37.7754 70.5942C38.2148 70.436 43.2773 69.6274 49.6406 68.7134C55.7402 67.8521 61.207 67.0259 61.7695 66.8677C63.2109 66.5161 64.7402 65.7075 66.0938 64.6001C66.7266 64.0728 70.8574 60.0298 75.2695 55.6001C84.6387 46.2134 84.2871 46.6704 84.2871 43.5942C84.2871 41.9243 84.2344 41.6606 83.7949 40.8169C83.1445 39.5864 82.0898 38.5669 80.877 38.0044C80.0859 37.6177 79.5938 37.5298 78.3105 37.4946C77.3086 37.4595 76.5 37.5298 76.0781 37.6704ZM79.541 40.7466C80.2969 41.1157 80.6836 41.4849 81.0527 42.2231C81.4746 43.0669 81.4746 44.3149 81.0527 45.1411C80.5781 46.0552 63.9316 62.5786 62.877 63.1938C62.4199 63.4575 61.6816 63.7739 61.2422 63.9146C60.7852 64.0552 55.3887 64.8638 49.2363 65.7427C43.084 66.6216 37.6699 67.4653 37.1777 67.6235C35.8945 68.0278 34.8574 68.5903 33.5918 69.5396L32.4844 70.3657L26.1738 64.0552L19.8457 57.7446L24.8203 52.8228C30.1465 47.5493 30.9375 46.9341 33.3105 46.1782C34.5234 45.7915 34.6992 45.7915 44.5605 45.7915H54.5801L55.7578 46.354C57.9727 47.4087 59.5371 49.5884 59.7129 51.9263C59.8008 52.9634 59.7832 53.0513 59.3262 53.4028C58.834 53.7896 58.8164 53.7896 49.2188 53.7896C38.4434 53.7896 38.9531 53.7368 38.7422 55.0376C38.6543 55.5474 38.7246 55.7583 39.0762 56.1802L39.5156 56.6899H49.6055H59.6777L60.4688 56.2681C60.9961 56.0044 63.8789 53.2622 68.9063 48.2524C74.5664 42.6099 76.6934 40.606 77.0801 40.5181C77.3789 40.4478 77.6953 40.3774 77.7832 40.3423C78.082 40.2544 78.9785 40.4653 79.541 40.7466ZM23.9414 66.0591C32.9238 75.0239 33.5742 75.7271 33.5742 76.2896C33.5742 76.8169 33.3281 77.1333 31.3242 79.1372C29.3203 81.1411 29.0215 81.3872 28.4766 81.3872C27.8965 81.3872 27.2285 80.7544 18.2461 71.7544C9.24609 62.772 8.61328 62.104 8.61328 61.5239C8.61328 60.979 8.85938 60.6802 10.8633 58.6763C12.8672 56.6548 13.166 56.4263 13.7109 56.4263C14.291 56.4263 14.9414 57.0415 23.9414 66.0591Z" fill="#CAD62B"/>
</svg>
